<?xml version="1.0" encoding="UTF-8"?>
<svg width="138px" height="28px" viewBox="0 0 138 28" version="1.1" xmlns="http://www.w3.org/2000/svg" xmlns:xlink="http://www.w3.org/1999/xlink">
    <title>Hostinger</title>
    <desc>All rights reserved</desc>
    <defs></defs>
    <g id="Hostinger" stroke="none" stroke-width="1" fill="none" fill-rule="evenodd">
        <g id="1" transform="translate(-6.000000, -2.000000)" fill="#FFFFFF">
            <g id="Hostinger" transform="translate(6.000000, 2.000000)">
                <polygon id="Fill-1" points="41.3829992 8.21979525 43.9643711 8.21979525 43.9643711 19.7325449 41.3829992 19.7325449 41.3829992 14.8483551 37.0478584 14.8483551 37.0478584 19.7325449 34.4664865 19.7325449 34.4664865 8.21979525 37.0478584 8.21979525 37.0478584 12.6219544 41.3829992 12.6219544"></polygon>
                <g id="Hostinger-2" transform="translate(47.194299, 7.729613)">
                    <path d="M2.79743789,6.23844929 C2.79743789,6.8029478 2.86615416,7.31239029 3.00404945,7.76654444 C3.14194473,8.2209309 3.34068978,8.61120147 3.60005322,8.93782078 C3.85872256,9.26490469 4.17615936,9.51648983 4.55143813,9.69350541 C4.92625417,9.87121791 5.35636714,9.959958 5.84200842,9.959958 C6.31608129,9.959958 6.74364922,9.87121791 7.12448082,9.69350541 C7.50461832,9.51648983 7.82483153,9.26490469 8.08373224,8.93782078 C8.34286432,8.61120147 8.54184073,8.2209309 8.67973601,7.76654444 C8.8176313,7.31239029 8.88657894,6.8029478 8.88657894,6.23844929 C8.88657894,5.67325387 8.8176313,5.16102374 8.67973601,4.70129429 C8.54184073,4.24179715 8.34286432,3.84897123 8.08373224,3.52188732 C7.82483153,3.19526801 7.50461832,2.94298596 7.12448082,2.76620268 C6.74364922,2.58895479 6.31608129,2.500447 5.84200842,2.500447 C5.35636714,2.500447 4.92625417,2.59174244 4.55143813,2.77433332 C4.17615936,2.9571565 3.85872256,3.21199389 3.60005322,3.5388455 C3.34068978,3.8654648 3.14194473,4.25852303 3.00404945,4.71802017 C2.86615416,5.17798192 2.79743789,5.68463676 2.79743789,6.23844929 Z M11.5503179,6.23844929 C11.5503179,7.2238825 11.403862,8.0908407 11.112107,8.83793009 C10.8194266,9.58571639 10.4193914,10.2115431 9.91223295,10.715178 C9.40484309,11.2195098 8.80074144,11.5986298 8.10039073,11.8532349 C7.40004002,12.1083046 6.64693743,12.2356071 5.84200842,12.2356071 C5.05859662,12.2356071 4.31983884,12.1083046 3.62480959,11.8532349 C2.92978034,11.5986298 2.32290228,11.2195098 1.80463812,10.715178 C1.28591124,10.2115431 0.878240953,9.58571639 0.580239066,8.83793009 C0.282468546,8.0908407 0.133236235,7.2238825 0.133236235,6.23844929 C0.133236235,5.25255148 0.287790009,4.38582557 0.596666189,3.63850388 C0.905311,2.89071758 1.32200463,2.26210319 1.84605298,1.7526607 C2.3696386,1.24321822 2.97651666,0.861310583 3.66622445,0.606473189 C4.35523813,0.351403491 5.08080794,0.223868642 5.84200842,0.223868642 C6.62495747,0.223868642 7.36394663,0.351403491 8.05920724,0.606473189 C8.75400512,0.861310583 9.36065182,1.24321822 9.87914734,1.7526607 C10.3974115,2.26210319 10.8057759,2.89071758 11.1035464,3.63850388 C11.4015483,4.38582557 11.5503179,5.25255148 11.5503179,6.23844929 Z" id="Fill-2"></path>
                    <path d="M18.0410674,10.0260949 C18.4050091,10.0260949 18.705556,9.99589542 18.9427082,9.93456718 C19.1798603,9.87393586 19.3702761,9.79100336 19.5134928,9.68507278 C19.6567096,9.58030371 19.7561978,9.45578881 19.8114947,9.31176039 C19.8667916,9.16796426 19.8943244,9.00720996 19.8943244,8.82996207 C19.8943244,8.45362973 19.7175593,8.14025175 19.3647233,7.89145426 C19.0116558,7.64195985 18.4050091,7.37364883 17.5447832,7.08512737 C17.1695044,6.95271414 16.794457,6.80009046 16.4194096,6.62865018 C16.0443622,6.45720989 15.7079532,6.24116725 15.4101827,5.98075456 C15.1126435,5.72057417 14.8697072,5.40487315 14.6822992,5.0334192 C14.4946598,4.66266215 14.4009558,4.21152795 14.4009558,3.67978429 C14.4009558,3.14804063 14.5002126,2.66902995 14.6987263,2.24275227 C14.8974714,1.81624228 15.1785834,1.45384818 15.5427565,1.15440843 C15.9066982,0.85520099 16.3476855,0.625917027 16.866181,0.464930414 C17.3846765,0.304640713 17.9691119,0.223798951 18.6201813,0.223798951 C19.392256,0.223798951 20.0597525,0.30742836 20.6224393,0.473293355 C21.1846633,0.639390654 21.6480933,0.822446138 22.012035,1.0217629 L21.2677244,3.06510813 C20.9475112,2.89901083 20.5916674,2.75219476 20.2004242,2.62465991 C19.8087183,2.49758967 19.3371905,2.43347379 18.7858407,2.43347379 C18.167857,2.43347379 17.7238619,2.51989084 17.4536242,2.69133113 C17.1833865,2.86300372 17.0480362,3.12620406 17.0480362,3.48023522 C17.0480362,3.69093487 17.0980117,3.86841506 17.1972685,4.01197888 C17.296294,4.15600731 17.4371971,4.2860975 17.6190523,4.40248176 C17.8011388,4.51863372 18.0107582,4.6240997 18.2481416,4.71795048 C18.484831,4.81226587 18.7469709,4.9089043 19.0340985,5.00856268 C19.6294082,5.23041292 20.1479037,5.4490109 20.5893537,5.66505354 C21.0303409,5.88109618 21.3972905,6.13314593 21.6897395,6.42097048 C21.9817259,6.70879503 22.1996744,7.04679722 22.3433539,7.43451246 C22.4863393,7.82245999 22.5582947,8.29287542 22.5582947,8.84622334 C22.5582947,9.92062895 22.1830159,10.7541354 21.4329211,11.3465104 C20.6828263,11.93935 19.5521313,12.2357698 18.0410674,12.2357698 C17.5336775,12.2357698 17.0758004,12.2051056 16.6676673,12.144242 C16.2595343,12.0829138 15.898369,12.0083442 15.58394,11.9198364 C15.2697423,11.8313286 14.9992732,11.7372456 14.7729954,11.6375872 C14.5469489,11.5376965 14.3567645,11.4438457 14.2022107,11.3548733 L14.930557,9.29503451 C15.272056,9.48366528 15.6940711,9.65231793 16.1963709,9.80145704 C16.6979765,9.95129306 17.3131839,10.0260949 18.0410674,10.0260949" id="Fill-4"></path>
                    <polygon id="Fill-6" points="33.9302133 0.49018185 33.9302133 2.69985668 30.471957 2.69985668 30.471957 12.0029315 27.8908164 12.0029315 27.8908164 2.69985668 24.4323286 2.69985668 24.4323286 0.49018185"></polygon>
                    <polygon id="Fill-8" points="36.7971164 12.0032103 39.3784884 12.0032103 39.3784884 0.49022831 36.7971164 0.49022831"></polygon>
                    <path d="M50.9328174,12.0029548 C50.1938283,10.6850947 49.3942207,9.38396044 48.5335321,8.09885519 C47.6728434,6.81398224 46.7573205,5.60135581 45.7869634,4.46051128 L45.7869634,12.0029548 L43.2386771,12.0029548 L43.2386771,0.49020508 L45.3399606,0.49020508 C45.703671,0.855386833 46.1064825,1.30396569 46.5479325,1.83570935 C46.9891512,2.36745301 47.4382363,2.93520378 47.8963448,3.53872935 C48.3539905,4.14225492 48.8090913,4.76808166 49.2614155,5.41574498 C49.7135085,6.0636406 50.1383,6.68644739 50.5355587,7.28462997 L50.5355587,0.49020508 L53.1002722,0.49020508 L53.1002722,12.0029548 L50.9328174,12.0029548" id="Fill-10"></path>
                    <path d="M62.552508,2.48381404 C61.350783,2.48381404 60.481765,2.81879629 59.946611,3.48876078 C59.4116884,4.15895757 59.1444584,5.07516421 59.1444584,6.23854221 C59.1444584,6.80280842 59.2103983,7.31550316 59.3427407,7.7750003 C59.4753146,8.23426514 59.6738282,8.63011101 59.9382818,8.96253791 C60.2034294,9.29496481 60.5340542,9.55258986 60.9313129,9.73541304 C61.3283403,9.91800391 61.7913075,10.0092994 62.3209087,10.0092994 C62.6075735,10.0092994 62.8532863,10.0037241 63.0575841,9.99280577 C63.2614193,9.98188749 63.4407294,9.95981862 63.5950518,9.92636685 L63.5950518,5.92284119 L66.1764238,5.92284119 L66.1764238,11.6210239 C65.8673162,11.7429835 65.3712634,11.8728414 64.6871084,12.0110622 C64.0034162,12.149283 63.159386,12.2189742 62.1554806,12.2189742 C61.2952546,12.2189742 60.5146193,12.085864 59.8144999,11.8203407 C59.1136865,11.5541204 58.515369,11.1668698 58.0188535,10.657195 C57.523032,10.1479848 57.139424,9.52192574 56.8691862,8.77994704 C56.5984858,8.03843294 56.4638296,7.19098826 56.4638296,6.23854221 C56.4638296,5.27471327 56.6128306,4.4219256 56.9108325,3.67971459 C57.2083716,2.9379682 57.6160419,2.3088892 58.1350002,1.79410372 C58.6534957,1.27908594 59.2626874,0.888815367 59.9632695,0.623059689 C60.6636202,0.357071707 61.4109386,0.22372926 62.2052247,0.22372926 C62.7457002,0.22372926 63.2336551,0.260200974 63.6695523,0.331982884 C64.1052181,0.404229401 64.4800341,0.487161899 64.7944631,0.581477288 C65.1091235,0.675328069 65.368487,0.772198802 65.5725535,0.872089485 C65.7768514,0.971747864 65.9223818,1.04956968 66.0109957,1.10485801 L65.2664537,3.18119039 C64.9131549,2.99302422 64.5077983,2.82994688 64.0503839,2.69126144 C63.5922754,2.55280831 63.0934462,2.48381404 62.552508,2.48381404" id="Fill-11"></path>
                    <polygon id="Fill-12" points="69.7881696 12.0029548 69.7881696 0.49020508 77.5318227 0.49020508 77.5318227 2.66642815 72.3693102 2.66642815 72.3693102 4.92558372 76.9527088 4.92558372 76.9527088 7.05232606 72.3693102 7.05232606 72.3693102 9.82673171 77.9126543 9.82673171 77.9126543 12.0029548"></polygon>
                    <path d="M84.5353992,2.56672331 C84.3477598,2.56672331 84.1800181,2.5722986 84.0307858,2.58321689 C83.8822475,2.59459978 83.7413445,2.60575037 83.6087707,2.61643635 L83.6087707,5.73953017 L84.3371169,5.73953017 C85.307474,5.73953017 86.0027346,5.61826753 86.4217419,5.37434842 C86.8412119,5.13112622 87.0505999,4.71553452 87.0505999,4.12827022 C87.0505999,3.5633071 86.8382042,3.16235055 86.4134126,2.92354212 C85.9886211,2.68589522 85.3627709,2.56672331 84.5353992,2.56672331 M84.3866296,0.357048476 C86.1075442,0.357048476 87.4254159,0.664154251 88.3409388,1.27906271 C89.2564617,1.89373887 89.7145702,2.84897257 89.7145702,4.14499611 C89.7145702,4.95318142 89.5299386,5.60990459 89.1602126,6.11377178 C88.7909494,6.61740667 88.2585718,7.01371714 87.5635426,7.30130939 C87.7953733,7.58959855 88.0378468,7.9190055 88.2914261,8.28999485 C88.5450053,8.66121651 88.7962709,9.04893174 89.0445287,9.45314055 C89.2925551,9.85734936 89.532715,10.2780518 89.7643143,10.7152477 C89.9956822,11.1531406 90.2108544,11.5822059 90.4091367,12.0029083 L87.5237473,12.0029083 C87.3132025,11.6263437 87.0998813,11.244436 86.8844777,10.8567208 C86.6683801,10.4692379 86.4474237,10.0924409 86.2199891,9.72679456 C85.9937112,9.3611482 85.7685902,9.01547998 85.5476339,8.68886067 C85.325752,8.36177676 85.1041016,8.06558927 84.8831452,7.79936898 L83.6087707,7.79936898 L83.6087707,12.0029083 L81.0278615,12.0029083 L81.0278615,0.65579131 C81.5903169,0.545679255 82.1722072,0.467625139 82.7733011,0.4237197 C83.3743949,0.379117348 83.912094,0.357048476 84.3866296,0.357048476" id="Fill-13"></path>
                </g>
                <path d="M0.000231367925,12.975219 L0.000231367925,0.000580759786 L6.50328963,3.4923409 L6.50328963,9.3380366 L15.1120274,9.34221807 L21.7205894,12.975219 L0.000231367925,12.975219 Z M16.8725059,8.26827708 L16.8725059,0.000116151957 L23.5509411,3.40499463 L23.5509411,12.174932 L16.8725059,8.26827708 Z M16.8725059,24.1265038 L16.8725059,18.331218 L8.19736558,18.3251781 C8.20546346,18.3637406 1.47913514,14.6341012 1.47913514,14.6341012 L23.5509411,14.7384057 L23.5509411,27.7128116 L16.8725059,24.1265038 Z M0,24.1265038 L0.000231367925,15.6478755 L6.50328963,19.4620735 L6.50328963,27.53115 L0,24.1265038 L0,24.1265038 Z" id="Fill-15"></path>
            </g>
        </g>
    </g>
</svg>